{"title":"Hudugru (2011)","uid":6564134,"size":1751573437,"categoryP":"video","categoryS":"movies","magnet":"?xt=urn:btih:871192974ab61801ba2daf437319c66e8bbb0897&amp;dn=Hudugru+%282011%29&amp;tr=udp%3A%2F%2Ftracker.openbittorrent.com%3A80&amp;tr=udp%3A%2F%2Fopen.demonii.com%3A1337&amp;tr=udp%3A%2F%2Ftracker.coppersurfer.tk%3A6969&amp;tr=udp%3A%2F%2Fexodus.desync.com%3A6969","seeders":0,"leechers":1,"uploader":"manhide","files":-1,"time":1311602802,"description":"Story:\nA gripping tale, the story is about three friends Prabhu (puneeth), Siddesh (yogish) and Chandru (sreenagara kitty) who can do anything for each other. They also have their own goals to achieve. Prabhu has to get a government job to marry his relative (radhika), Siddesh wants to go abroad and Chandru wants to set up a computer institute, he is also in love with Prabhu's sister (abhinaya). The story takes a turn when Prabhu's friend Sudhir (vishal) comes to him and asks for help. He is in love with Sushma (ramya), daughter of a business tycoon. Prabhu and friends risk their lives and help Sudhir and Sushma. In this process, the three friends lose very important things. What happens after that forms the rest of the story.\n\n\nMovie Review : Hudugru\nRating : 3.25/5\nBanner : Vajreshwari Combines\nCast : Puneet Rajkumar, Radhika Pandit, Srinagara Kitty, Abhinaya, Yogesh, Sadhu Kokila, Ramya Barna, Rangayana Raghu, Avinash, Vanitha Vasu and Others\nMusic : V Harikrishna\nCinematography : Satya Hegde\nProducer: Raghavendra Rajkumar\nDirector: Maadesh\nReleased Date: May 20, 2011\n\n\n\nGeneral \n\nComplete name : Hudugaru - 2011\\Hudugaru - 2011.mkv \nFormat : Matroska \nFile size : 1.63 GiB \nDuration : 2h 32mn \nOverall bit rate : 1 536 Kbps \nEncoded date : UTC 2011-07-25 11:38:03 \nWriting application : mkvmerge v4.8.0 ('I Got The...') built on May 24 2011 03:12:58 \nWriting library : libebml v1.2.0 + libmatroska v1.1.0 \n\n\n\n\n\nVideo \n\nFormat : MPEG-4 Visual \nFormat profile : Simple@L1 \nFormat settings, BVOP : No \nFormat settings, QPel : No \nFormat settings, GMC : No warppoints \nFormat settings, Matrix : Default (H.263) \nCodec ID : DX50 \nCodec ID/Hint : DivX 5 \nDuration : 2h 32mn \nBit rate : 1 378 Kbps \nWidth : 720 pixels \nHeight : 540 pixels \nDisplay aspect ratio : 4:3 \nFrame rate : 29.970 fps \nColor space : YUV \nChroma subsampling : 4:2:0 \nBit depth : 8 bits \nScan type : Progressive \nCompression mode : Lossy \nBits/(Pixel*Frame) : 0.118 \nStream size : 1.46 GiB (90%) \nWriting library : DigiArty AV Encoder Core \nLanguage : Kannada \n\nAudio \n\nFormat : MPEG Audio \nFormat version : Version 1 \nFormat profile : Layer 3 \nMuxing mode : Header stripping \nCodec ID : A_MPEG/L3 \nCodec ID/Hint : MP3 \nDuration : 2h 32mn \nBit rate mode : Constant \nBit rate : 128 Kbps \nChannel(s) : 2 channels \nSampling rate : 48.0 KHz \nCompression mode : Lossy \nStream size : 139 MiB (8%) \nLanguage : Kannada \n\n\n Screens:\n\n\n &lt;a href=&quot; http://savesnap.com/images/hu.jpg&quot; rel=&quot;nofollow&quot; target=&quot;_NEW&quot;&gt; http://savesnap.com/images/hu.jpg&lt;/a&gt;\n\n","torrent":{"xt":"urn:btih:871192974ab61801ba2daf437319c66e8bbb0897","amp;dn":"Hudugru+%282011%29","amp;tr":["udp%3A%2F%2Ftracker.openbittorrent.com%3A80","udp%3A%2F%2Fopen.demonii.com%3A1337","udp%3A%2F%2Ftracker.coppersurfer.tk%3A6969","udp%3A%2F%2Fexodus.desync.com%3A6969"],"infoHash":"871192974ab61801ba2daf437319c66e8bbb0897","infoHashBuffer":{"type":"Buffer","data":[135,17,146,151,74,182,24,1,186,45,175,67,115,25,198,110,139,187,8,151]},"announce":[],"urlList":[]}}